# xmcd
#
# Track frame offsets:
#	150
#	14818
#	29888
#	49250
#	63585
#	81993
#	99333
#	121395
#	140680
#	162380
#	181443
#	198068
#	215905
#	232353
#
# Disc length: 3402 seconds
#
# Revision: 1
# Processed by: cddbd v1.5.1PL0 Copyright (c) Steve Scherf et al.
# Submitted via: CDex 1.50Beta5
#
DISCID=de0d480e
DTITLE=美空ひばり - 愛燦燦 - 美空ひばり
DYEAR=1900
DGENRE=
TTITLE0=東京キッド
TTITLE1=私は街の子
TTITLE2=リンゴ追分
TTITLE3=港町十三番地
TTITLE4=哀愁波止場
TTITLE5=柔(やわら)
TTITLE6=悲しい酒
TTITLE7=好きなのさ
TTITLE8=しのぶ
TTITLE9=裏町酒場
TTITLE10=おまえに惚れた
TTITLE11=恋港
TTITLE12=函館山から
TTITLE13=愛燦燦
EXTD=
EXTT0=
EXTT1=
EXTT2=
EXTT3=
EXTT4=
EXTT5=
EXTT6=
EXTT7=
EXTT8=
EXTT9=
EXTT10=
EXTT11=
EXTT12=
EXTT13=
PLAYORDER=
